<svg width="32" height="32" viewBox="0 0 32 32" fill="none" xmlns="http://www.w3.org/2000/svg">
<path d="M15.3333 28C22.3289 28 28 22.3289 28 15.3333C28 8.33773 22.3289 2.66667 15.3333 2.66667C8.33773 2.66667 2.66667 8.33773 2.66667 15.3333C2.66667 22.3289 8.33773 28 15.3333 28Z" stroke="currentColor" stroke-width="2"/>
<path d="M24.6667 24.6667L29.3333 29.3333" stroke="currentColor" stroke-width="2" stroke-linecap="round"/>
<path d="M20.3333 15.3334C20.3333 14.208 19.0973 13.448 16.6267 11.9293C14.12 10.3893 12.8667 9.62002 11.9333 10.1853C11 10.7507 11 12.2787 11 15.3334C11 18.388 11 19.916 11.9333 20.4814C12.868 21.0467 14.12 20.2774 16.6267 18.7374C19.0973 17.2187 20.3333 16.4587 20.3333 15.3334Z" stroke="currentColor" stroke-width="2" stroke-linecap="round"/>
</svg>
